<svg xmlns="http://www.w3.org/2000/svg" width="640" height="320">
  <rect width="640" height="320" fill="#2E3034" />
  <g transform="translate(200 40)">
    <rect width="240" height="240" fill="#14161a" />
    <g fill="#2E3034" transform="translate(10 10) scale(2)">
      <polygon points="59.7 44.4 53.2 38.4 24.8 38.4 31.3 44.4" />
      <polygon points="31.3 23.3 24.8 29.3 53.2 29.3 59.7 23.3" />
      <polygon points="59.7 14.2 53.2 8.2 24.8 8.2 31.3 14.2" />
      <path d="M21.9 20.2l-4.3-4.3-15.8 15.8c-0.6 0.6-0.9 1.3-0.9 2.1 0 0.8 0.3 1.6 0.9 2.1l15.8 15.8 4.3-4.3-13.7-13.7 13.7-13.7z" />
      <path d="M82.8 16.6l-15.8-15.8-4.3 4.3 13.7 13.7-13.7 13.7 4.3 4.3 15.8-15.8c0.6-0.6 0.9-1.3 0.9-2.1 0-0.8-0.3-1.6-0.9-2.1" />
    </g>
    <g fill="#fff" transform="translate(60 150)">
      <path d="M 107.85 30.65 L 128.25 30.65 L 128.25 35 L 102.85 35 L 102.85 0 L 127.55 0 L 127.55 4.35 L 107.85 4.35 L 107.85 15.1 L 125.4 15.1 L 125.4 19.35 L 107.85 19.35 L 107.85 30.65 Z M 28.95 0 L 42.85 22.8 L 42.85 35 L 47.8 35 L 47.8 22.9 L 61.7 0 L 56.75 0 L 45.5 18.45 L 34.3 0 L 28.95 0 Z M 12 35 L 12 4.35 L 0 4.35 L 0 0 L 28.95 0 L 28.95 4.35 L 16.95 4.35 L 16.95 35 L 12 35 Z M 136.35 35 L 136.35 0 L 151.1 0 A 23.879 23.879 0 0 1 156.491 0.585 A 19.287 19.287 0 0 1 160.95 2.2 Q 165.25 4.4 167.625 8.375 Q 170 12.35 170 17.5 A 18.995 18.995 0 0 1 169.29 22.782 A 16.212 16.212 0 0 1 167.625 26.625 Q 165.25 30.6 160.95 32.8 Q 156.65 35 151.1 35 L 136.35 35 Z M 80.4 24.4 L 71.75 24.4 L 71.75 35 L 66.75 35 L 66.75 0 L 80.4 0 Q 85.592 0 89.093 1.895 A 12.176 12.176 0 0 1 91.1 3.25 Q 95 6.5 95 12.2 A 13.388 13.388 0 0 1 94.452 16.131 A 10.353 10.353 0 0 1 91.1 21.15 Q 87.665 24.013 81.979 24.354 A 26.377 26.377 0 0 1 80.4 24.4 Z M 141.35 30.65 L 150.8 30.65 Q 155.05 30.65 158.275 29 Q 161.5 27.35 163.25 24.375 Q 165 21.4 165 17.5 A 14.767 14.767 0 0 0 164.535 13.725 A 12.227 12.227 0 0 0 163.25 10.625 Q 161.5 7.65 158.275 6 A 14.869 14.869 0 0 0 153.662 4.554 A 19.392 19.392 0 0 0 150.8 4.35 L 141.35 4.35 L 141.35 30.65 Z M 80.25 4.35 L 71.75 4.35 L 71.75 20.05 L 80.25 20.05 A 17.839 17.839 0 0 0 82.995 19.853 Q 85.78 19.419 87.5 18.025 A 6.574 6.574 0 0 0 89.86 13.897 A 9.854 9.854 0 0 0 90 12.2 Q 90 8.4 87.5 6.375 A 8.121 8.121 0 0 0 84.882 4.991 Q 82.922 4.35 80.25 4.35 Z" vector-effect="non-scaling-stroke"/>
      <path transform="translate(66 45)" d="M 58.6 0 L 63.6 0 L 63.6 35 L 59.5 35 L 38.5 8.9 L 38.5 35 L 33.5 35 L 33.5 0 L 37.6 0 L 58.6 26.1 L 58.6 0 Z M 5 30.65 L 25.4 30.65 L 25.4 35 L 0 35 L 0 0 L 24.7 0 L 24.7 4.35 L 5 4.35 L 5 15.1 L 22.55 15.1 L 22.55 19.35 L 5 19.35 L 5 30.65 Z M 99.5 0 L 104.5 0 L 89.15 35 L 84.2 35 L 68.8 0 L 74.2 0 L 86.8 28.75 L 99.5 0 Z" vector-effect="non-scaling-stroke"/>
    </g>
  </g>
</svg>
